<svg width="24" height="24" viewBox="0 0 24 24" fill="none" xmlns="http://www.w3.org/2000/svg">
<g id="Close Icon">
<path id="Icon color" d="M17.8518 16.44C17.9465 16.5339 17.9997 16.6617 17.9997 16.795C17.9997 16.9283 17.9465 17.0561 17.8518 17.15L17.1518 17.85C17.0579 17.9447 16.9301 17.9979 16.7968 17.9979C16.6635 17.9979 16.5357 17.9447 16.4418 17.85L12.0018 13.41L7.56181 17.85C7.46792 17.9447 7.34012 17.9979 7.20681 17.9979C7.07349 17.9979 6.94569 17.9447 6.85181 17.85L6.15181 17.15C6.05715 17.0561 6.00391 16.9283 6.00391 16.795C6.00391 16.6617 6.05715 16.5339 6.15181 16.44L10.5918 12L6.15181 7.56C6.05715 7.46612 6.00391 7.33832 6.00391 7.205C6.00391 7.07169 6.05715 6.94389 6.15181 6.85L6.85181 6.15C6.94569 6.05535 7.07349 6.00211 7.20681 6.00211C7.34012 6.00211 7.46792 6.05535 7.56181 6.15L12.0018 10.59L16.4418 6.15C16.5357 6.05535 16.6635 6.00211 16.7968 6.00211C16.9301 6.00211 17.0579 6.05535 17.1518 6.15L17.8518 6.85C17.9465 6.94389 17.9997 7.07169 17.9997 7.205C17.9997 7.33832 17.9465 7.46612 17.8518 7.56L13.4118 12L17.8518 16.44Z" fill="black"/>
</g>
</svg>
