<svg width="20" height="20" viewBox="0 0 20 20" fill="none" xmlns="http://www.w3.org/2000/svg">
<g id="Contact Us Icon">
<path id="Icon color" fill-rule="evenodd" clip-rule="evenodd" d="M16.6393 2.5C17.0735 2.51284 17.4855 2.69575 17.7872 3.00965C18.2136 3.41827 18.4073 4.01452 18.303 4.59707L16.1153 15.9597C16.0194 16.4883 15.6843 16.9422 15.2086 17.1879L14.9341 17.3299C14.3622 17.611 13.6807 17.5396 13.1789 17.1461L10.6169 15.1158L9.29425 16.3691C9.02767 16.6253 8.67331 16.7688 8.30437 16.7701C8.20492 16.7824 8.10435 16.7824 8.00491 16.7701C7.47616 16.6501 7.05497 16.2495 6.90689 15.7258L5.82551 12.058L2.24032 10.8549C1.88318 10.7384 1.648 10.3961 1.66635 10.0194V9.47631C1.63969 9.11495 1.84798 8.77753 2.18209 8.64083L15.9905 2.63368C16.1957 2.54589 16.4163 2.50043 16.6393 2.5ZM14.6429 16.1017C14.7733 16.0312 14.865 15.9053 14.8925 15.7592L17.0469 4.39655C17.0785 4.23081 17.029 4.05993 16.9138 3.93704C16.8342 3.84445 16.7195 3.78985 16.5977 3.78665C16.5485 3.77492 16.4972 3.77492 16.448 3.78665L2.9141 9.68518L6.66566 10.9718C6.7788 11.026 6.91021 11.026 7.02335 10.9718L13.312 6.98656C13.4337 6.93036 13.5779 6.96484 13.6614 7.07011C13.7207 7.12596 13.7513 7.20597 13.7445 7.28734C13.7416 7.37027 13.7057 7.44855 13.6447 7.50456C12.6964 8.30663 11.1076 9.71025 8.4541 12.2167C8.36935 12.297 8.32122 12.4088 8.321 12.5258V15.4751C8.36304 15.4729 8.40352 15.4583 8.43746 15.4333L10.2841 13.6872C10.4384 13.5498 10.6705 13.5498 10.8248 13.6872L13.9525 16.1936C14.0199 16.2514 14.1052 16.2839 14.1937 16.2855C14.2544 16.2857 14.3143 16.2714 14.3684 16.2438L14.6429 16.1017Z" fill="black"/>
</g>
</svg>
