<svg width="15" height="15" viewBox="0 0 15 15" fill="none" xmlns="http://www.w3.org/2000/svg">
<path fill-rule="evenodd" clip-rule="evenodd" d="M11.0013 9.79875V2.79875C11.0013 2.15441 10.479 1.63208 9.83463 1.63208H2.83464C2.1903 1.63208 1.66797 2.15441 1.66797 2.79875V9.79875C1.66797 10.4431 2.1903 10.9654 2.83464 10.9654H9.83463C10.479 10.9654 11.0013 10.4431 11.0013 9.79875ZM2.83464 2.79875H9.83463V9.79875H2.83464V2.79875ZM12.168 10.9654V3.96541C12.8123 3.96541 13.3346 4.48775 13.3346 5.13208V10.9654C13.3346 12.2541 12.29 13.2987 11.0013 13.2987H5.16797C4.52364 13.2987 4.0013 12.7764 4.0013 12.1321H11.0013C11.6456 12.1321 12.168 11.6097 12.168 10.9654Z" fill="#242424"/>
</svg>
