<svg width="20" height="20" viewBox="0 0 20 20" fill="none" xmlns="http://www.w3.org/2000/svg">
<g id="Docs Chevron Icon">
<path id="Icon color" d="M10.5982 13.15C10.4812 13.2672 10.3223 13.3332 10.1566 13.3333H9.83992C9.67457 13.3314 9.51635 13.2657 9.39825 13.15L5.12325 8.86667C5.04437 8.78844 5 8.68194 5 8.57084C5 8.45974 5.04437 8.35324 5.12325 8.27501L5.71492 7.68334C5.79172 7.60495 5.89684 7.56078 6.00658 7.56078C6.11632 7.56078 6.22145 7.60495 6.29825 7.68334L9.99825 11.3917L13.6982 7.68334C13.7765 7.60446 13.883 7.56009 13.9941 7.56009C14.1052 7.56009 14.2117 7.60446 14.2899 7.68334L14.8732 8.27501C14.9521 8.35324 14.9965 8.45974 14.9965 8.57084C14.9965 8.68194 14.9521 8.78844 14.8732 8.86667L10.5982 13.15Z" fill="#242424"/>
</g>
</svg>
