<svg width="40" height="40" viewBox="0 0 40 40" fill="none" xmlns="http://www.w3.org/2000/svg">
<g id="Generic avatar">
<rect width="40" height="40" rx="20" fill="#EADDFF"/>
<g id="Avatar Placeholder">
<path fill-rule="evenodd" clip-rule="evenodd" d="M25.9983 16C25.9983 19.3137 23.312 22 19.9983 22C16.6846 22 13.9983 19.3137 13.9983 16C13.9983 12.6863 16.6846 10 19.9983 10C23.312 10 25.9983 12.6863 25.9983 16ZM23.9983 16C23.9983 18.2091 22.2074 20 19.9983 20C17.7892 20 15.9983 18.2091 15.9983 16C15.9983 13.7909 17.7892 12 19.9983 12C22.2074 12 23.9983 13.7909 23.9983 16Z" fill="#4F378A"/>
<path d="M19.9983 25C13.5239 25 8.00757 28.8284 5.90625 34.192C6.41815 34.7004 6.95739 35.1812 7.52158 35.6321C9.08632 30.7077 13.995 27 19.9983 27C26.0016 27 30.9103 30.7077 32.475 35.6321C33.0392 35.1812 33.5784 34.7004 34.0903 34.1921C31.989 28.8284 26.4727 25 19.9983 25Z" fill="#4F378A"/>
</g>
</g>
</svg>
