<svg width="20" height="20" viewBox="0 0 20 20" fill="none" xmlns="http://www.w3.org/2000/svg">
<g id="Mission Icon">
<path id="Icon color" fill-rule="evenodd" clip-rule="evenodd" d="M17.009 3.19167L16.8092 2.99167C16.4985 2.67868 16.0765 2.50186 15.6357 2.5H14.3707C12.6072 2.50082 10.9161 3.20212 9.66847 4.45L8.65311 5.46667L8.34518 5.83333H6.84712C6.3232 5.83333 5.82986 6.08032 5.51551 6.5L2.60261 10.3917C2.4658 10.5462 2.4658 10.7788 2.60261 10.9333L3.73448 12.0667C3.98238 12.3142 4.32269 12.4461 4.67244 12.4303C5.02218 12.4144 5.34921 12.2523 5.57377 11.9833L5.64867 11.8917L8.07886 14.325L7.98731 14.4C7.71871 14.6248 7.55675 14.9523 7.54093 15.3025C7.5251 15.6527 7.65686 15.9934 7.90408 16.2417L9.03595 17.375C9.19032 17.512 9.42255 17.512 9.57692 17.375L13.4636 14.4583C13.8827 14.1436 14.1294 13.6496 14.1294 13.125V11.7083L14.4956 11.3583L15.5109 10.3417C16.7724 9.09924 17.4882 7.40508 17.5 5.63333V4.36667C17.4981 3.92535 17.3216 3.50279 17.009 3.19167ZM12.8466 7.15834C13.3247 7.63422 13.469 8.35185 13.2119 8.97586C12.9549 9.59987 12.3473 10.007 11.6732 10.007C10.999 10.007 10.3915 9.59987 10.1344 8.97586C9.87735 8.35185 10.0216 7.63422 10.4997 7.15834C11.1489 6.51213 12.1974 6.51213 12.8466 7.15834ZM6.15003 14.875C6.15003 14.7645 6.10439 14.659 6.02393 14.5833L5.43302 13.9917C5.35751 13.9111 5.25208 13.8654 5.14173 13.8654C5.03139 13.8654 4.92596 13.9111 4.85044 13.9917L2.64497 16.2C2.56619 16.2782 2.52187 16.3847 2.52187 16.4958C2.52187 16.6069 2.56619 16.7134 2.64497 16.7917L3.22754 17.375C3.30568 17.4539 3.41204 17.4983 3.523 17.4983C3.63395 17.4983 3.74031 17.4539 3.81845 17.375L6.02393 15.1667C6.10439 15.0911 6.15003 14.9855 6.15003 14.875Z" fill="black"/>
</g>
</svg>
